<svg width="28" height="28" viewBox="0 0 28 28" fill="none" xmlns="http://www.w3.org/2000/svg">
<path opacity="0.5" fill-rule="evenodd" clip-rule="evenodd" d="M7.0583 7.0576C7.44883 6.66708 8.08199 6.66708 8.47252 7.0576L11.1724 9.75746C11.5629 10.148 11.5629 10.7812 11.1724 11.1717C10.7819 11.5622 10.1487 11.5622 9.75817 11.1717L7.0583 8.47182C6.66778 8.08129 6.66778 7.44813 7.0583 7.0576Z" fill="#6D6D72"/>
<path opacity="0.5" fill-rule="evenodd" clip-rule="evenodd" d="M4.18213 14C4.18213 13.4477 4.62984 13 5.18213 13H9.00031C9.5526 13 10.0003 13.4477 10.0003 14C10.0003 14.5523 9.5526 15 9.00031 15H5.18213C4.62984 15 4.18213 14.5523 4.18213 14Z" fill="#6D6D72"/>
<path opacity="0.5" fill-rule="evenodd" clip-rule="evenodd" d="M7.05827 20.9423C6.66775 20.5518 6.66775 19.9186 7.05827 19.5281L9.75814 16.8282C10.1487 16.4377 10.7818 16.4377 11.1723 16.8282C11.5629 17.2188 11.5629 17.8519 11.1723 18.2424L8.47249 20.9423C8.08196 21.3328 7.4488 21.3328 7.05827 20.9423Z" fill="#6D6D72"/>
<path opacity="0.5" fill-rule="evenodd" clip-rule="evenodd" d="M14 18C14.5523 18 15 18.4477 15 19V22.8182C15 23.3705 14.5523 23.8182 14 23.8182C13.4477 23.8182 13 23.3705 13 22.8182V19C13 18.4477 13.4477 18 14 18Z" fill="#6D6D72"/>
<path fill-rule="evenodd" clip-rule="evenodd" d="M16.8289 16.8283C17.2195 16.4378 17.8526 16.4378 18.2431 16.8283L20.943 19.5282C21.3335 19.9187 21.3335 20.5518 20.943 20.9424C20.5525 21.3329 19.9193 21.3329 19.5288 20.9424L16.8289 18.2425C16.4384 17.852 16.4384 17.2188 16.8289 16.8283Z" fill="#6D6D72"/>
<path opacity="0.82" fill-rule="evenodd" clip-rule="evenodd" d="M18 14C18 13.4477 18.4477 13 19 13H22.8182C23.3705 13 23.8182 13.4477 23.8182 14C23.8182 14.5523 23.3705 15 22.8182 15H19C18.4477 15 18 14.5523 18 14Z" fill="#6D6D72"/>
<path opacity="0.65" fill-rule="evenodd" clip-rule="evenodd" d="M16.8289 11.1716C16.4384 10.7811 16.4384 10.1479 16.8289 9.7574L19.5288 7.05754C19.9193 6.66702 20.5525 6.66702 20.943 7.05754C21.3335 7.44807 21.3335 8.08123 20.943 8.47175L18.2431 11.1716C17.8526 11.5621 17.2194 11.5621 16.8289 11.1716Z" fill="#6D6D72"/>
<path opacity="0.6" fill-rule="evenodd" clip-rule="evenodd" d="M14 4.18164C14.5523 4.18164 15 4.62936 15 5.18164V8.99982C15 9.55211 14.5523 9.99982 14 9.99982C13.4477 9.99982 13 9.55211 13 8.99982V5.18164C13 4.62936 13.4477 4.18164 14 4.18164Z" fill="#6D6D72"/>
</svg>
